# xmcd
#
# Track frame offsets:
#	150
#	19189
#	38734
#	56215
#	74067
#	92587
#	106489
#	123321
#	140417
#	157209
#	175788
#	192223
#	210781
#	227507
#	242380
#	274107
#
# Disc length: 3660 seconds
#
# Revision: 1
# Processed by: cddbd v1.5.1PL2 Copyright (c) Steve Scherf et al.
# Submitted via: audiograbber 1.83.01
#
DISCID=db0e4a10
DTITLE=Various Artist - All Star Karaoke Fall 2005 Vol 1
DYEAR=1900
DGENRE=Karaoke
TTITLE0=Billy Currington - Must Be Doing Something Right
TTITLE1=Brad Paisley - Alchol
TTITLE2=Craig Morgan - Redneck Yatch Club
TTITLE3=Faith Hill - Mississippi Girl
TTITLE4=Gary Allan - Best I Ever Had
TTITLE5=George Strait - Texas
TTITLE6=Gretchen Wilson - All Jacked Up
TTITLE7=Jamie O'Neal - Somebody's Hero
TTITLE8=Jason Aldean - Hicktown
TTITLE9=Montgomery Gentry - Something To Be Proud Of
TTITLE10=Neal McCoy - Billy's Got His Beer Goggles On
TTITLE11=Sara Evans - A Real Fine Place To Start
TTITLE12=Tim McGraw  - Do You Want Fries With That
TTITLE13=Tracy Lawrence - Used To The Pain
TTITLE14=Trisha Yearwood - Georgia Rain
TTITLE15=Data Track - Data Track
EXTD=
EXTT0=
EXTT1=
EXTT2=
EXTT3=
EXTT4=
EXTT5=
EXTT6=
EXTT7=
EXTT8=
EXTT9=
EXTT10=
EXTT11=
EXTT12=
EXTT13=
EXTT14=
EXTT15=
PLAYORDER=
